:SAMPLES-PER-SECOND 30
:FRAME-RANGE 1-2045
:FULLY-SPECIFIED
:DEGREES
1854
root  32.7809 33.8559 24.2323 -0.627441 -46.0923 -0.0727997
RightUpLeg  -46.3121 -5.76846 6.75702
RightLeg  46.7528 -13.6483 -15.3361
RightFoot  -1.08505 0.820948 -9.2005
RightToes  5.82063e-011 0 -3.6325e-017
Spine  15.2367 -3.53384 9.6522
Spine1  -2.33531 -2.33755 2.72639
HEad  -5.78591 -44.9268 6.67933
LeftShoulder1  1.04235 -1.62243 -13.3344
LeftArm  -10.5776 5.94183 -9.49412
LeftForeArm  -10.6404 -70.3609 -36.7281
LeftHand  -0.986637 10.2486 -20.9611
RightShoulder  7.29295 31.7958 13.3937
RightArm  -2.69556 35.4228 17.5659
RightForeArm  -33.1955 57.5552 20.3814
RightHand  0.0153209 -4.96597 15.2552
LeftUpLeg  10.7765 8.16576 2.81304
LeftLeg  54.533 -8.13524 -11.607
LeftFoot  -6.77423 0.851933 -20.1683
LeftToes  -3.90176e-010 -2.48536e-010 1.05482e-011
1855
root  31.3731 33.232 25.6052 1.04663 -43.6915 -3.46481
RightUpLeg  -46.6972 -5.20299 8.41862
RightLeg  55.6823 -13.6785 -20.8413
RightFoot  -6.4245 0.361655 -9.40247
RightToes  5.82063e-011 0 -3.6325e-017
Spine  16.6721 -4.07675 14.7533
Spine1  -1.30024 -1.47417 2.23388
HEad  -7.48875 -48.0444 7.85477
LeftShoulder1  1.0276 -1.33476 -14.3258
LeftArm  -11.8042 6.0668 -9.67753
LeftForeArm  -8.98161 -71.0239 -38.3203
LeftHand  -1.02113 10.5523 -20.4579
RightShoulder  7.32576 33.3233 12.5136
RightArm  -3.96087 35.7657 17.108
RightForeArm  -34.5 55.9038 19.1744
RightHand  0.0574581 -4.68484 15.7776
LeftUpLeg  4.28546 2.28327 5.24578
LeftLeg  66.6925 -6.60311 -15.7644
LeftFoot  8.00654 4.08826 -23.9589
LeftToes  -3.90176e-010 -2.48536e-010 1.05482e-011
1856
root  29.8691 33.1755 27.0115 1.755 -42.091 -4.25381
RightUpLeg  -45.2339 -5.33966 8.51892
RightLeg  60.3727 -12.8097 -23.3608
RightFoot  -11.4239 -0.0809811 -5.36064
RightToes  5.82063e-011 0 -3.6325e-017
Spine  16.7155 -3.62003 16.578
Spine1  -0.335943 -0.54544 1.60027
HEad  -10.8099 -50.6019 11.9682
LeftShoulder1  0.992998 -1.14564 -14.4556
LeftArm  -13.9252 5.96776 -10.8357
LeftForeArm  -7.8958 -71.2349 -38.7906
LeftHand  -0.970419 10.4055 -19.9662
RightShoulder  7.43563 34.5246 12.1085
RightArm  -6.06768 37.0008 16.2388
RightForeArm  -35.3244 53.3901 17.5024
RightHand  0.16776 -3.99502 16.6982
LeftUpLeg  -4.90091 -1.54217 5.83538
LeftLeg  78.1661 -2.77466 -14.1868
LeftFoot  2.06188 2.32656 -19.7371
LeftToes  -3.90176e-010 -2.48536e-010 1.05482e-011
1857
root  28.3234 33.4485 28.4624 1.87299 -42.2089 -4.45337
RightUpLeg  -41.7787 -5.23309 8.50338
RightLeg  62.1607 -12.099 -23.8413
RightFoot  -15.7404 -0.175764 -1.80515
RightToes  5.82063e-011 0 -3.6325e-017
Spine  17.3199 -2.65715 17.3202
Spine1  0.175054 0.662112 0.558449
HEad  -15.0368 -52.3418 17.0186
LeftShoulder1  1.04526 -1.24899 -15.1517
LeftArm  -16.1449 6.27009 -10.7406
LeftForeArm  -7.58316 -71.1729 -38.57
LeftHand  -0.922337 10.1814 -19.8142
RightShoulder  7.26888 35.8944 10.8643
RightArm  -8.47012 38.0671 15.7072
RightForeArm  -35.7728 51.6239 16.4537
RightHand  0.222625 -3.63736 16.7163
LeftUpLeg  -14.3085 -2.57461 6.43588
LeftLeg  84.839 -0.81328 -9.90514
LeftFoot  -1.02891 1.15389 -12.6792
LeftToes  -3.90176e-010 -2.48536e-010 1.05482e-011
1858
root  26.7575 33.9778 29.924 1.67285 -42.0036 -4.06978
RightUpLeg  -37.1704 -6.72846 8.08334
RightLeg  61.6367 -11.6566 -22.6222
RightFoot  -19.576 -0.082894 0.68898
RightToes  5.82063e-011 0 -3.6325e-017
Spine  17.7054 -1.82852 16.6996
Spine1  -0.0441871 1.21702 0.243051
HEad  -16.851 -53.9309 20.1264
LeftShoulder1  1.08352 -1.29718 -15.7811
LeftArm  -17.6206 6.5653 -9.97849
LeftForeArm  -9.51354 -70.494 -36.9412
LeftHand  -0.897893 10.046 -19.8212
RightShoulder  6.88603 36.8766 9.30802
RightArm  -9.89475 39.0668 15.8986
RightForeArm  -35.0305 50.8841 16.0036
RightHand  0.272404 -3.32097 16.799
LeftUpLeg  -23.6229 -2.92385 6.66322
LeftLeg  86.1464 -0.381652 -3.74339
LeftFoot  -4.77011 0.602861 -9.98592
LeftToes  -3.90176e-010 -2.48536e-010 1.05482e-011
1859
root  25.1844 34.6609 31.4171 1.51569 -42.2672 -3.38892
RightUpLeg  -31.9509 -8.40528 7.16459
RightLeg  59.2894 -11.3514 -20.1873
RightFoot  -22.4567 0.0853906 2.44104
RightToes  5.82063e-011 0 -3.6325e-017
Spine  17.491 -0.958085 15.6476
Spine1  -0.418866 1.74245 -0.772868
HEad  -16.9733 -55.8533 22.2107
LeftShoulder1  1.08234 -1.25523 -15.9706
LeftArm  -18.6407 7.33624 -9.05389
LeftForeArm  -10.9198 -69.9332 -35.6904
LeftHand  -0.847537 9.68294 -20.2195
RightShoulder  6.62957 37.409 8.36277
RightArm  -10.7769 40.0851 16.3005
RightForeArm  -34.0477 50.86 15.9483
RightHand  0.292476 -3.16716 16.6127
LeftUpLeg  -31.3503 -1.92032 6.37853
LeftLeg  81.565 -0.203686 0.504522
LeftFoot  -7.98612 0.311128 -8.9786
LeftToes  -3.90176e-010 -2.48536e-010 1.05482e-011
1860
root  23.6196 35.4183 32.8983 1.39453 -43.2551 -2.69966
RightUpLeg  -26.7954 -9.34646 5.81475
RightLeg  56.381 -10.3217 -16.625
RightFoot  -23.3791 0.33084 4.63989
RightToes  5.82063e-011 0 -3.6325e-017
Spine  17.2643 0.0281103 14.0623
Spine1  -0.949223 2.39161 -2.0619
HEad  -16.3833 -58.1461 23.4076
LeftShoulder1  1.04876 -1.04366 -16.317
LeftArm  -19.764 8.73467 -7.90966
LeftForeArm  -10.5051 -70.3077 -36.5759
LeftHand  -0.85214 9.76483 -20.1527
RightShoulder  6.42607 38.1099 7.50732
RightArm  -11.4423 40.6308 16.6934
RightForeArm  -33.2285 50.9671 15.972
RightHand  0.330129 -2.92002 16.6199
LeftUpLeg  -36.3744 0.701515 5.99249
LeftLeg  71.5575 0.256405 1.78691
LeftFoot  -9.34661 0.247274 -10.9696
LeftToes  -3.90176e-010 -2.48536e-010 1.05482e-011
1861
root  22.1359 36.1944 34.3246 0.861755 -44.4327 -1.46841
RightUpLeg  -22.8798 -10.9093 3.63023
RightLeg  54.6906 -8.07197 -12.454
RightFoot  -21.6597 0.59062 8.15903
RightToes  5.82063e-011 0 -3.6325e-017
Spine  17.3118 0.999266 11.4924
Spine1  -1.49434 3.04201 -3.32622
HEad  -15.6582 -60.3594 24.1634
LeftShoulder1  1.00916 -0.779916 -16.8535
LeftArm  -20.8927 10.2245 -6.8931
LeftForeArm  -8.31986 -71.3162 -39.0838
LeftHand  -0.863552 9.81219 -20.0243
RightShoulder  6.06754 38.5714 6.37255
RightArm  -11.9418 41.201 16.816
RightForeArm  -32.8399 51.1056 16.0322
RightHand  0.359328 -2.6907 16.3782
LeftUpLeg  -38.0923 3.78067 5.1182
LeftLeg  56.5926 -0.740572 -0.697202
LeftFoot  -9.59158 0.256089 -12.9751
LeftToes  -3.90176e-010 -2.48536e-010 1.05482e-011
1862
root  20.7113 36.7573 35.758 0.326233 -45.7944 -0.430542
RightUpLeg  -20.8357 -13.1497 1.12816
RightLeg  55.9077 -4.91658 -8.20062
RightFoot  -17.6715 0.543018 11.9557
RightToes  5.82063e-011 0 -3.6325e-017
Spine  17.2279 1.47778 9.46638
Spine1  -1.48118 3.64268 -5.55767
HEad  -13.9726 -62.0284 23.8774
LeftShoulder1  0.912624 -0.384821 -16.7535
LeftArm  -22.0659 11.6528 -6.12066
LeftForeArm  -5.55198 -72.4985 -42.5675
LeftHand  -0.890201 10.0173 -19.7647
RightShoulder  5.45007 39.2833 4.50136
RightArm  -13.4326 41.8658 16.48
RightForeArm  -32.4492 50.7558 15.8201
RightHand  0.406393 -2.4281 16.6835
LeftUpLeg  -36.867 5.24279 4.99261
LeftLeg  39.4158 -5.52167 -4.47471
LeftFoot  -9.87912 0.24224 -14.3021
LeftToes  -3.90176e-010 -2.48536e-010 1.05482e-011
1863
root  19.3366 36.9571 37.2997 -1.13837 -47.6815 0.719742
RightUpLeg  -20.7158 -14.6729 -1.95534
RightLeg  61.2689 -2.67721 -5.81409
RightFoot  -10.3602 -0.196293 14.5883
RightToes  5.82063e-011 0 -3.6325e-017
Spine  16.7778 1.76518 7.83464
Spine1  -0.353641 4.29082 -7.82177
HEad  -11.314 -62.9241 21.8406
LeftShoulder1  0.888132 -0.250742 -16.954
LeftArm  -23.7181 12.8373 -4.95212
LeftForeArm  -2.42555 -73.5865 -46.4385
LeftHand  -0.925775 10.2911 -19.45
RightShoulder  4.50343 39.8631 1.88952
RightArm  -15.6164 42.8031 15.7192
RightForeArm  -32.9091 50.2174 15.5477
RightHand  0.420024 -2.34634 16.7286
LeftUpLeg  -33.4448 2.86009 6.69787
LeftLeg  25.4397 -7.47296 -3.52511
LeftFoot  -10.3174 0.185847 -13.8524
LeftToes  -3.90176e-010 -2.48536e-010 1.05482e-011
1864
root  17.9956 36.5622 39.0673 -3.28693 -50.8662 1.47601
RightUpLeg  -22.788 -15.3511 -4.81006
RightLeg  70.2898 -1.69666 -6.11226
RightFoot  0.182266 -0.921446 9.12579
RightToes  5.82063e-011 0 -3.6325e-017
Spine  16.1878 2.19476 7.75532
Spine1  0.783235 5.2225 -10.1096
HEad  -7.77958 -63.5647 17.9418
LeftShoulder1  0.845389 -0.053405 -17.0722
LeftArm  -25.9678 13.2795 -4.04531
LeftForeArm  -0.422317 -74.2552 -49.3029
LeftHand  -0.993055 10.7247 -19.2361
RightShoulder  3.24931 40.6146 -1.46947
RightArm  -18.7345 43.4178 14.5072
RightForeArm  -33.4162 49.6458 15.267
RightHand  0.445287 -2.23818 17.05
LeftUpLeg  -30.3915 3.44927 7.95806
LeftLeg  23.2317 -2.95893 -1.05396
LeftFoot  1.51083 2.16429 -19.1436
LeftToes  -3.90176e-010 -2.48536e-010 1.05482e-011
1865
root  16.7982 35.6354 40.6676 -6.02441 -53.9517 2.811
RightUpLeg  -26.0903 -15.419 -6.90676
RightLeg  78.7537 -1.66129 -11.6841
RightFoot  5.08948 -0.374084 2.83142
RightToes  5.82063e-011 0 -3.6325e-017
Spine  17.5399 2.57703 6.70444
Spine1  -0.786619 5.6494 -11.8346
HEad  -4.86114 -63.7112 14.5626
LeftShoulder1  0.735326 0.353683 -16.6096
LeftArm  -28.1921 13.7596 -4.40327
LeftForeArm  3.30838 -75.1076 -53.5206
LeftHand  -1.0539 11.2215 -18.727
RightShoulder  1.97282 40.9602 -4.72643
RightArm  -22.547 44.3315 13.2406
RightForeArm  -33.9413 48.7186 14.8148
RightHand  0.461339 -2.23044 17.593
LeftUpLeg  -31.6407 9.0919 6.62834
LeftLeg  35.7642 -6.57995 -4.69655
LeftFoot  -0.696877 1.31856 -14.0531
LeftToes  -3.90176e-010 -2.48536e-010 1.05482e-011
1866
root  15.6474 35.1895 42.1614 -10.2823 -54.7034 5.98463
RightUpLeg  -28.5082 -16.9819 -9.96419
RightLeg  82.2895 -1.11497 -13.6216
RightFoot  0.18385 -0.104335 1.04583
RightToes  5.82063e-011 0 -3.6325e-017
Spine  18.5031 2.54092 3.99396
Spine1  -1.90552 4.9422 -10.8012
HEad  -3.68494 -63.7197 12.9046
LeftShoulder1  0.817408 0.174747 -17.9232
LeftArm  -30.5482 12.9908 -4.7539
LeftForeArm  5.35132 -75.4265 -55.2545
LeftHand  -1.0546 11.3598 -18.3053
RightShoulder  1.68685 41.2752 -5.47382
RightArm  -26.3825 45.102 11.5914
RightForeArm  -33.7441 47.7987 14.3551
RightHand  0.507889 -2.01847 18.0222
LeftUpLeg  -30.2563 10.3833 4.52276
LeftLeg  43.0391 -6.0397 -5.60431
LeftFoot  -5.56923 0.550781 -10.2443
LeftToes  -3.90176e-010 -2.48536e-010 1.05482e-011
